
        <svg xmlns="http://www.w3.org/2000/svg" xmlns:xlink="http://www.w3.org/1999/xlink" version="1.1" width="3205.4794520547944" 
        height="945.2054794520546" viewBox="0 0 3205.4794520547944 945.2054794520546">
			
			<g transform="scale(10.273972602739725) translate(10, 10)">
				<defs id="SvgjsDefs1681"></defs><g id="SvgjsG1682" featureKey="symbolFeature-0" transform="matrix(0.8703082474508221,0,0,0.8703082474508221,-7.397620103331988,-7.515412372541107)" fill="#8dbab3"><path xmlns="http://www.w3.org/2000/svg" d="M32.628212,8.6361885c-1.3350086,2.6396627-2.1030216,5.61516-2.1008072,8.7757549  c0.0030556,8.8963432,5.9801903,16.3825207,14.1322403,18.705534c3.6843719-7.3044529,2.4856567-16.4400749-3.6176529-22.5373764  C38.6159935,11.1556845,35.708065,9.5134058,32.628212,8.6361885z"></path><path xmlns="http://www.w3.org/2000/svg" d="M36.6367226,44.4209976c-2.2498589-8.2716866-9.7946415-14.3607674-18.7788963-14.3561306  C14.4649076,30.0661316,11.2771158,30.9387112,8.5,32.4654617c0.8604574,3.1732445,2.5209713,6.1744614,5.014431,8.6644402  C19.7794399,47.3903809,29.2442551,48.4790459,36.6367226,44.4209976z"></path><path xmlns="http://www.w3.org/2000/svg" d="M55.8574944,63.100174c-4.2872086,7.4469681-3.2679024,17.1136398,3.1020927,23.474884  c2.2940254,2.2922363,5.0209694,3.880127,7.9149857,4.7891769c1.6449127-2.858284,2.5996017-6.1639252,2.5978088-9.6987228  C69.4694366,72.9555359,63.745388,65.5863647,55.8574944,63.100174z"></path><path xmlns="http://www.w3.org/2000/svg" d="M63.6276436,55.5768967c2.5443764,7.7994499,9.8681145,13.438858,18.5163231,13.4329529  c3.2794952-0.0010529,6.3647232-0.8215637,9.0758514-2.254921c-0.9208527-2.8249702-2.486496-5.485714-4.7325592-7.7296715  C80.2964554,52.8389931,70.9795303,51.6921387,63.6276436,55.5768967z"></path><path xmlns="http://www.w3.org/2000/svg" d="M30.5274048,81.6813278c0.0012646,3.5291061,0.9556408,6.8292618,2.5986557,9.6833267  c2.8991814-0.9107361,5.6306572-2.5032654,7.9271049-4.8024521c6.3580856-6.3627243,7.3740196-16.0220184,3.0891266-23.4626579  C36.2468147,65.587204,30.5213947,72.9648132,30.5274048,81.6813278z"></path><path xmlns="http://www.w3.org/2000/svg" d="M36.3721466,55.576683c-7.3567352-3.8893929-16.6797752-2.7372704-22.8689957,3.4578514  c-2.241004,2.242691-3.8027496,4.9006958-4.72192,7.7218742c2.7157688,1.4356766,5.8073206,2.2557602,9.0932493,2.2534409  C26.5151005,69.006897,33.8301964,63.3696022,36.3721466,55.576683z"></path><path xmlns="http://www.w3.org/2000/svg" d="M69.4723816,17.3963432c-0.0010529-3.1555357-0.7696991-6.1255512-2.1030197-8.7609978  c-3.0833282,0.8789034-5.9938965,2.5245552-8.4208412,4.9538212c-6.0945625,6.0989876-7.2872696,15.2284966-3.6074257,22.5278873  C63.4990463,33.7925644,69.4770203,26.2994328,69.4723816,17.3963432z"></path><path xmlns="http://www.w3.org/2000/svg" d="M63.3639107,44.4203644c7.3991051,4.060791,16.8699303,2.9689598,23.1346245-3.3035316  c2.4859772-2.4876633,4.1424866-5.4840279,5.0014648-8.6517944c-2.7815399-1.5288563-5.9742889-2.4018574-9.3726883-2.4001713  C73.1491699,30.0682411,65.6136627,36.1560555,63.3639107,44.4203644z"></path></g><g id="SvgjsG1683" featureKey="nameFeature-0" transform="matrix(1.2050080203933486,0,0,1.2050080203933486,96.82053772306145,-5.307654529554837)" fill="#0e3d59"><path d="M15.6 32.44 c0.4 0.32 -0.04 0.6 -0.24 0.76 c-2.16 2.12 -4.04 4.04 -6.6 5.64 c-0.48 0.28 -0.92 0.56 -1.4 0.76 c-0.92 0.36 -1.84 0.4 -2.64 -0.24 c-0.84 -0.68 -0.8 -1.64 -0.6 -2.56 c0.16 -0.68 0.4 -1.36 0.6 -2 c-1.76 0.84 -2.8 2.64 -4.44 3.68 c-0.56 0.36 -1.08 0.76 -1.68 1.04 c-0.72 0.32 -1.4 0.48 -2.04 -0.08 c-0.6 -0.56 -0.64 -1.32 -0.48 -2.04 c0.6 -2.84 4 -5.64 6.96 -5.72 c0.56 0 1.16 0.2 1.68 0.52 c0.24 0.16 0.44 0.56 0.8 0.36 c0.44 -0.24 0.8 -1 1.28 -0.2 c0.36 0.52 -0.16 0.96 -0.36 1.44 c-0.48 1 -1.12 1.96 -1.36 3.08 c-0.16 0.72 -0.4 1.4 0.32 1.96 c0.72 0.52 1.36 0.28 2.04 -0.08 c1.44 -0.68 2.72 -1.64 3.88 -2.76 c1.2 -1.16 2.28 -2 3.48 -3.16 c0.2 -0.24 0.48 -0.64 0.8 -0.4 z M3.88 34.24 c0.32 -0.32 0.68 -0.68 0.48 -1.2 c-0.28 -0.68 -0.92 -0.36 -1.32 -0.44 c-2.44 0 -5.04 2 -5.96 4.52 c-0.2 0.64 -0.56 1.28 0.12 1.8 c0.6 0.52 1.16 0.04 1.6 -0.24 c1.96 -1.16 3.48 -2.84 5.08 -4.44 z M27.37 39.72 c-1.08 -1.04 -0.68 -2.28 -0.24 -3.48 c0.2 -0.44 0.44 -0.84 0.56 -1.28 c0.32 -0.84 1.4 -1.8 0.52 -2.48 c-0.6 -0.48 -1.68 0.36 -2.44 0.88 c-1.32 0.84 -2.4 1.92 -3.44 3.04 c-0.4 0.44 -0.84 0.84 -1.24 1.28 c-0.24 0.2 -0.52 0.24 -0.76 0.08 c-0.28 -0.2 -0.12 -0.44 0 -0.68 c0.48 -1 0.96 -2.04 1.4 -3.08 c0.2 -0.48 0.68 -1.08 0.16 -1.44 c-0.4 -0.28 -0.96 0.2 -1.44 0.44 c-2.24 1.2 -3.6 3.32 -5.24 5.12 c-0.2 0.2 -0.28 0.44 -0.48 0.64 c-0.24 0.28 -0.48 0.76 -0.96 0.48 c-0.44 -0.24 -0.16 -0.72 -0.12 -1.08 c0.44 -2.04 1.56 -3.8 2.24 -5.72 c0.08 -0.24 0.36 -0.48 0.64 -0.36 c0.24 0.12 0.24 0.44 0.16 0.72 c-0.52 1.28 -1.2 2.68 -1.68 3.92 c-0.12 0.2 0.16 0.16 0.28 0.04 c0.88 -0.76 1.56 -1.76 2.44 -2.56 c0.56 -0.48 1.08 -0.96 1.68 -1.36 c0.92 -0.6 1.92 -1.72 3 -1.08 c1.12 0.64 0.16 1.88 0 2.84 c-0.04 0.24 -0.16 0.44 -0.04 0.56 c0.08 0.08 0.24 0.04 0.48 -0.2 c1.48 -1.16 2.4 -2.52 4.32 -3.12 c0.6 -0.2 1.2 -0.44 1.72 -0.04 c0.6 0.52 0.48 1.24 0.24 1.88 c-0.4 1.04 -0.96 2 -1.36 3.04 c-0.32 0.88 -0.6 1.96 0.24 2.6 c0.72 0.64 1.64 0.2 2.4 -0.24 c1.36 -0.8 3.4 -2.44 8.16 -6.6 c0.16 -0.16 0.4 -0.44 0.6 -0.08 c0.08 0.08 -0.12 0.36 -0.24 0.48 c-2.8 2.64 -4.84 4.6 -8.12 6.68 c-1.04 0.64 -2.32 1.28 -3.44 0.16 z M41.620000000000005 28.64 c-0.44 0.04 -0.72 -0.24 -0.8 -0.68 c-0.16 -1 0.76 -1.16 1.32 -1.44 c0.4 -0.2 0.68 0.2 0.8 0.64 c-0.24 0.64 -0.48 1.36 -1.32 1.48 z M39.74 39.68 c-1.48 0.44 -2.68 -0.56 -2.56 -2.16 c0.44 -1.68 1.24 -3.36 2.04 -5.04 c0.16 -0.32 0.44 -0.6 0.76 -0.36 c0.4 0.28 0.04 0.6 -0.08 0.88 c-0.52 1.2 -1.12 2.4 -1.56 3.64 c-0.24 0.72 -0.56 1.56 0.24 2.24 c0.52 0.4 1.4 0 2.04 -0.24 c2.52 -1.04 4.52 -3.96 7.44 -6.12 c0.2 -0.12 0.36 -0.44 0.6 -0.12 c0.2 0.24 -0.04 0.44 -0.24 0.56 c-3.88 2.8 -4.6 5.56 -8.68 6.72 z M63.910000000000004 32.36 c0.44 0.44 -0.12 0.68 -0.36 0.92 c-3.44 3 -6.96 5.28 -10.84 7.64 c-1.2 0.76 -1.96 1.64 -2.48 2.96 c-1.08 2.84 -2.24 5.68 -3.52 8.44 c-0.72 1.6 -1.52 3.2 -3.24 4.12 c-2.36 1.28 -4.44 0.16 -4.6 -2.52 c-0.08 -1.72 0.44 -3.24 1.52 -4.6 c2.12 -2.68 4.84 -4.72 7.8 -6.4 c1.6 -0.88 2.68 -2.04 3.16 -3.76 c0.32 -1 1.04 -1.8 1.08 -2.88 c-1.24 0.4 -1.76 1.64 -2.76 2.36 c-1.04 0.68 -2.12 2.08 -3.44 1.12 c-1.16 -0.88 -0.6 -2.4 -0.24 -3.68 c0.52 -1.72 1.52 -3.08 3.2 -3.84 c1.24 -0.6 2.52 -0.8 3.76 0 c0.28 0.16 0.44 0.44 0.88 0.32 c0.96 -0.24 1.2 -0.04 0.88 0.84 c-0.92 2.28 -1.76 4.56 -2.92 6.72 c0 0.04 0.08 0.08 0.16 0.08 c0.44 0.04 2.04 -0.96 2.12 -1 c3.24 -2.08 6.12 -4 9.04 -6.48 c0.24 -0.2 0.52 -0.64 0.8 -0.36 z M48.03 38.92 c1.64 -0.92 2.84 -2.4 4.04 -3.8 c0.48 -0.56 1.28 -1.2 0.6 -2.08 c-0.64 -0.8 -1.56 -0.64 -2.4 -0.4 c-2 0.56 -3.88 3.16 -3.88 5.28 c-0.04 1.44 0.4 1.72 1.64 1 z M45.230000000000004 53.519999999999996 c1.64 -3.24 3 -6.6 4.08 -10.08 c0 -0.04 0 -0.16 -0.12 -0.12 c-3.36 1.56 -6.12 3.92 -8.48 6.72 c-0.96 1.16 -1.32 2.56 -1.12 4.08 c0.2 1.84 1.64 2.6 3.28 1.76 c1.04 -0.52 1.84 -1.36 2.36 -2.36 z M62.04000000000001 40.04 c-0.88 -0.56 -0.64 -1.56 -0.48 -2.36 c0.44 -1.92 1.44 -3.56 2.44 -5.2 c0.16 -0.24 0.4 -0.64 0.76 -0.36 s0.04 0.6 -0.08 0.88 c-0.84 1.52 -1.72 2.96 -2.24 4.64 c-0.2 0.6 -0.48 1.16 0.04 1.64 c0.6 0.52 1.24 0.28 1.84 -0.08 c2.36 -1.32 4.2 -3.24 6.04 -5.16 c0.12 -0.16 0.24 -0.32 0.4 -0.48 c0.32 -0.32 0.56 -1.08 1.2 -0.64 c0.52 0.36 -0.04 0.84 -0.2 1.24 c-0.44 0.96 -0.92 1.88 -1.28 2.88 c-0.48 1.48 0.32 2.4 1.8 2.04 c1.76 -0.4 3.36 -1.2 4.72 -2.44 c1.68 -1.52 2.92 -2.68 4.6 -4.16 c0.2 -0.2 0.44 -0.36 0.68 -0.08 c0.04 0.04 -0.08 0.36 -0.2 0.48 c-2.56 2.52 -4.56 4.84 -7.92 6.36 c-0.76 0.32 -1.56 0.76 -2.28 0.6 c-1.96 -0.04 -2.56 -0.88 -2.32 -3 c0.04 -0.24 0.16 -0.68 0.12 -0.72 c-0.36 -0.12 -0.56 0.2 -0.76 0.4 c-1.32 1.32 -2.76 2.48 -4.4 3.36 c-0.84 0.44 -1.68 0.64 -2.48 0.16 z M86.09 39.56 c-3.24 1.48 -5.2 -0.28 -4.84 -3.2 c0.12 -0.96 0.32 -2.04 0.72 -3 c2.88 -6.88 6.6 -13.2 11.92 -18.48 c1.08 -1.08 2.28 -2.04 3.72 -2.64 c2.4 -0.96 3.72 0 3.32 2.48 c-0.44 2.88 -2.12 5.16 -3.96 7.24 c-3.6 4 -7.84 7.16 -12.72 9.4 c-0.48 0.24 -0.76 0.52 -0.96 0.96 c-0.52 1.2 -0.96 2.44 -1.16 3.76 c-0.36 2.76 1.16 3.92 3.68 2.84 c2.48 -1.08 4.48 -2.88 6.52 -4.52 l2.44 -2 c0.12 -0.08 0.44 -0.2 0.52 -0.12 c0.32 0.24 0.08 0.48 -0.12 0.64 c-3.04 2.32 -5.52 5 -9.08 6.64 z M84.73 30.439999999999998 c3.8 -1.72 7 -4.28 10.04 -7.04 c2.32 -2.16 4.24 -4.76 5.28 -7.84 c0.32 -0.84 0.56 -1.92 -0.2 -2.64 c-0.88 -0.8 -1.72 0.08 -2.52 0.36 c-0.44 0.16 -0.84 0.48 -1.2 0.76 c-5.16 4.44 -8.96 9.96 -11.76 16.12 c-0.2 0.32 0.04 0.44 0.36 0.28 z M96.42000000000002 40.52 c-1.48 0.4 -3.04 -0.48 -3.36 -1.92 c-0.64 -2.72 1.32 -6.24 3.92 -7.12 c2.4 -0.84 4.32 0.52 4.32 3.04 l0 1 c0 0.88 2.32 -0.8 4.48 -1.72 c1.32 -0.6 2.84 -1.12 4.24 -1.44 c0.2 -0.04 0.6 -0.12 0.6 0.28 c0 0.28 -0.24 0.28 -0.44 0.32 c-3.12 0.76 -5.64 2.28 -8.52 3.56 c-0.8 0.36 -1.32 0.8 -1.8 1.44 c-0.88 1.16 -1.92 2.2 -3.44 2.56 z M98.94000000000001 36.28 c0.96 0.24 1.64 -0.64 1.68 -2.28 c0.04 -0.48 -0.08 -1.12 -0.6 -1.48 c-0.64 -0.48 -0.8 0.56 -1.44 0.64 c-0.88 0.12 -1.12 1.04 -1.04 1.88 c0.08 0.76 0.72 1.08 1.4 1.24 z M95.86000000000001 39.72 c1.28 0 2.16 -0.8 2.96 -1.72 c0.32 -0.32 0.4 -0.68 -0.12 -0.88 c-2.08 -0.8 -2.56 -2.12 -1.48 -4.04 c0.08 -0.16 0.24 -0.4 0 -0.52 c-0.12 -0.08 -0.36 0 -0.52 0.08 c-1.52 0.64 -3.12 3.36 -2.96 5 c0.12 1.4 0.8 2.08 2.12 2.08 z M110.71000000000001 39.92 c-0.92 -0.44 -0.76 -1.4 -0.76 -2.32 c0 -1.12 0.4 -3.76 0.92 -5.28 c0.08 -0.24 0.16 -0.6 0.48 -0.52 s0.24 0.44 0.2 0.68 c-0.24 1.32 -0.64 2.8 -0.76 4.08 c-0.08 0.88 -0.4 2.16 0.48 2.56 c0.76 0.2 2 -0.72 3.8 -2.84 c0.68 -0.8 1.24 -1.96 0.16 -3.28 c-1.28 -1.56 -0.84 -3.72 0.64 -4.8 c1.32 -0.96 2.68 -0.4 2.88 1.24 c0.12 1.12 -0.12 2.16 -0.56 3.12 c-0.48 1.08 -0.04 1.2 0.92 1.24 c1.16 0.04 2.56 -0.36 4.6 -1.4 c0.24 -0.08 0.64 -0.2 0.72 0 c0.2 0.4 -0.24 0.48 -0.52 0.6 c-2.2 1 -3.52 1.88 -6.12 1.56 c-0.76 -0.08 -1 0.52 -1.36 1 c-0.96 1.36 -1.96 2.68 -3.32 3.68 c-0.76 0.48 -1.48 1.08 -2.4 0.68 z M116.71000000000001 33.24 c0.68 0.08 1.36 -1.96 1.36 -3.16 c0 -0.68 0 -1.44 -0.84 -1.56 c-0.68 -0.12 -1.24 0.4 -1.52 1.04 c-0.68 1.4 -0.24 3.68 1 3.68 z M125.16 39.8 c-2.64 0 -3.72 -1.52 -2.96 -4.04 c0.52 -1.56 1.4 -2.84 2.72 -3.8 c0.96 -0.68 2.04 -0.76 2.96 -0.04 c0.72 0.56 0.48 2.08 -0.44 3 c-1 1 -2.2 1.6 -3.68 1.52 c-0.96 -0.08 -1.32 0.6 -0.84 1.48 c0.52 0.96 1.96 1.48 3.36 1.08 c2.32 -0.68 4.32 -2 6.04 -3.68 c1.04 -1 1.88 -1.64 2.92 -2.68 c0.16 -0.16 0.4 -0.44 0.64 -0.12 c0.12 0.16 0.04 0.36 -0.08 0.52 c-2.72 2.8 -5.2 5.28 -9.08 6.56 c-0.52 0.16 -1.04 0.16 -1.56 0.2 z M123.96 35.68 c1.04 0.48 3.56 -1.24 3.6 -2.64 c-0.04 -0.6 -0.52 -0.92 -1.32 -0.8 c-0.8 0.08 -2.6 1.88 -2.72 2.68 c-0.08 0.4 0.12 0.64 0.44 0.76 z M138.97 40.16 c-1.6 0 -2.12 -0.56 -2.16 -2.08 c-0.04 -1.4 0.6 -2.56 1.36 -3.64 c0.64 -0.92 0.64 -1.44 -0.6 -1.56 c-0.32 -0.04 -0.64 -0.24 -0.96 -0.32 c-0.24 -0.08 -0.52 -0.16 -0.76 -0.28 c-0.76 -0.32 -1.08 -0.96 -0.92 -1.76 c0.32 -1.68 1.2 -2.96 2.72 -3.68 c0.68 -0.36 1.48 -0.4 2.08 0.16 c0.48 0.48 0.76 1.08 0.44 1.8 c-0.32 0.8 -0.6 1.64 -1.28 2.2 c-0.8 0.64 -1.16 1.08 0.08 1.6 c0.76 0.32 0.72 1 0.28 1.68 c-0.56 0.84 -1.08 1.68 -1.48 2.6 c-0.32 0.72 -0.48 1.64 0.12 2.24 c0.6 0.64 1.48 0.4 2.24 0.08 c1.6 -0.64 2.88 -1.6 4.2 -2.76 c1.2 -1.04 2.76 -2.52 4.12 -3.76 c0.24 -0.16 0.44 -0.6 0.8 -0.24 c0.24 0.24 -0.04 0.48 -0.2 0.64 c-2.56 2.32 -4.8 4.84 -7.92 6.48 c-0.72 0.36 -1.44 0.68 -2.16 0.6 z M136.57 31.72 c1.2 0.12 3.32 -2.76 2.88 -3.8 c-0.28 -0.64 -0.76 -0.68 -1.32 -0.48 c-0.92 0.28 -2.4 2.24 -2.48 3.2 c-0.04 0.72 0.52 0.84 0.92 1.08 z M148.29999999999998 40.88 c-0.6 -0.72 -0.04 -1.52 1.04 -2.04 c1.04 -0.52 1.24 -1.32 0.92 -2.04 c-1.04 -2.36 -1.36 -3 -1.12 -3.96 c0.24 -0.84 0.92 -1.4 1.72 -1.44 c0.76 -0.04 1.28 0.32 1.6 0.96 c0.28 0.56 0.2 1.48 -0.52 1.96 c-0.16 0.08 -0.44 0.24 -0.6 0.08 c-0.24 -0.16 -0.12 -0.32 0.08 -0.52 c1.04 -0.8 -0.08 -2.2 -0.96 -1.52 c-0.96 0.72 -0.56 1.88 0.76 4.72 c0.12 0.24 0.4 0.6 0.88 0.36 c0.92 -0.4 2.08 -0.92 3.2 -1.44 c2.04 -0.96 3.88 -2.12 5.76 -3.36 c0.24 -0.16 0.56 -0.6 0.84 -0.16 c0.24 0.36 -0.16 0.52 -0.44 0.72 c-2.64 1.88 -5.4 3.44 -8.44 4.6 c-0.96 0.36 -1.68 1 -1.92 1.92 c-0.28 1 -2.04 2.08 -2.8 1.16 z M149.57999999999998 40.44 c0.92 -0.36 1.28 -1.68 0.48 -1.28 c-1.72 0.84 -1.24 1.6 -0.48 1.28 z"></path></g>
			</g>
		</svg>
	